# xmcd CD database file
#
# Track frame offsets:
#	150
#	12792
#	21099
#	28994
#	36282
#	43925
#	51499
#	62271
#	68154
#	74604
#	80703
#	91063
#	93898
#	98014
#	99453
#	107849
#	117030
#	129906
#	132934
#	150909
#	163703
#	178845
#	189506
#	195340
#	206454
#	214559
#	226273
#	239658
#	252251
#	267084
#	280784
#	290086
#	296874
#	304168
#	311336
#	320205
#	329035
#	341977
#
# Disc length: 4731 seconds
#
# Revision: 0
# Processed by: cddbd v1.5.2PL0 Copyright (c) Steve Scherf et al.
# Submitted via: CDex 1.70beta2
#
DISCID=32127926
DTITLE=Zimbl - Zimbl we hope the angels let you rock - CD 2 "und haste nicht gesehen"
DYEAR=2007
DGENRE=Blues
TTITLE0=Zu Dir
TTITLE1=Hexeneinmaleins
TTITLE2=To Andy
TTITLE3=Insane
TTITLE4=Bates Again
TTITLE5=In Hell
TTITLE6=Michelle
TTITLE7=I'm Doing Fine
TTITLE8=Türkenblues
TTITLE9=Much Better Now
TTITLE10=Wild Thing
TTITLE11=Zimbl (Live in Braunschweig)
TTITLE12=Witches (Live)
TTITLE13=Zimbl- "Schrei doch net so rum" (Live in Braunschweig)
TTITLE14="It's A Heartache" (Live in Braunschweig)
TTITLE15=The Wanderer (Live in Braunschweig)
TTITLE16=Far Away (Live in Braunschweig)
TTITLE17=Alle meine Entchen (Live in Braunschweig)
TTITLE18=Those Were The Days (Live in Koblenz)
TTITLE19=Say It Isn't So (Live in Koblenz)
TTITLE20=Blue Boy (Live in Witten)
TTITLE21=Lili Marlene (Live in Witten)
TTITLE22=Keine ist wie Du (Live in Witten)
TTITLE23=Lips Of Jayne Mansfield (Live in Witten)
TTITLE24=The Letter (Live in München)
TTITLE25=No Place To Go (Live in München)
TTITLE26=Herz von St. Pauli (Live in München)
TTITLE27=It's Getting Dark (Live in München)
TTITLE28=Lucille (Live in München)
TTITLE29=Crazee Now (Live in München)
TTITLE30=Paint It Black (Live in München)
TTITLE31=Der Einsame (Live in München)
TTITLE32=Much Better Now (Live in Koblenz)
TTITLE33=In Hell (Live in Koblenz)
TTITLE34=Michelle (Live in Koblenz)
TTITLE35=Herz von St. Pauli (Live in Koblenz)
TTITLE36=Far Away (Distorted Version)
TTITLE37=Bad Girls (Distorted Version)
EXTD=YEAR: 2007
EXTT0=
EXTT1=
EXTT2=
EXTT3=
EXTT4=
EXTT5=
EXTT6=
EXTT7=
EXTT8=
EXTT9=
EXTT10=
EXTT11=
EXTT12=
EXTT13=
EXTT14=
EXTT15=
EXTT16=
EXTT17=
EXTT18=
EXTT19=
EXTT20=
EXTT21=
EXTT22=
EXTT23=
EXTT24=
EXTT25=
EXTT26=
EXTT27=
EXTT28=
EXTT29=
EXTT30=
EXTT31=
EXTT32=
EXTT33=
EXTT34=
EXTT35=
EXTT36=
EXTT37=
PLAYORDER=
